<svg xmlns="http://www.w3.org/2000/svg" width="64" height="64" viewBox="0 0 64 64"><path d="M19.583,63.99512a3.06739,3.06739,0,1,1,3.06836-3.06739A3.07081,3.07081,0,0,1,19.583,63.99512Zm0-4.13477a1.06739,1.06739,0,1,0,1.06836,1.06738A1.0682,1.0682,0,0,0,19.583,59.86035Z"/><path d="M34.19238,63.99512a3.06729,3.06729,0,0,1-.23047-6.126.99983.99983,0,0,1,.14844,1.99414,1.06617,1.06617,0,1,0,1.11719.80274,1.00023,1.00023,0,0,1,1.94141-.48243,3.07028,3.07028,0,0,1-2.97657,3.81153Z" data-name="circle26819"/><path d="M45.3584,63.99805A18.57422,18.57422,0,1,1,63.93359,45.42383,18.59483,18.59483,0,0,1,45.3584,63.99805Zm0-35.14844A16.57422,16.57422,0,1,0,61.93359,45.42383,16.59349,16.59349,0,0,0,45.3584,28.84961Z"/><path d="M56.14258,53.86426a3.9382,3.9382,0,0,1-2.36328-.919,1.075,1.075,0,0,1-.13282-.125l-3.41406-3.84765a1.00028,1.00028,0,0,1,1.4961-1.32813l3.3496,3.77539c.60157.44727,1.07227.49317,1.24708.41113.15039-.07031.252-.35546.26367-.74316v-2.0332c0-3.65723-.78223-7.87989-1.45606-9.07324A1,1,0,0,1,56.875,38.999c1.02539,1.81543,1.71387,6.666,1.71387,10.05567v2.06445a2.623,2.623,0,0,1-1.415,2.52246A2.405,2.405,0,0,1,56.14258,53.86426Zm-21.56738,0A2.405,2.405,0,0,1,33.544,53.6416a2.60471,2.60471,0,0,1-1.415-2.49121v-2.0957c0-3.3916.68847-8.24219,1.71386-10.05664a1.00053,1.00053,0,0,1,1.74219.98437c-.67383,1.19043-1.45605,5.41309-1.45605,9.07227v2.06445c.01171.35645.11328.6416.26367.71191.1748.082.64551.03614,1.24707-.41113l3.34961-3.77539a1.00028,1.00028,0,0,1,1.49609,1.32813l-3.41406,3.84765a1.07491,1.07491,0,0,1-.13281.125A3.936,3.936,0,0,1,34.5752,53.86426Zm18.41015-15.1084H37.73242a1,1,0,0,1,0-2H52.98535a1,1,0,0,1,0,2Z"/><path d="M41.51465 51.085A2.77686 2.77686 0 1144.291 48.30859 2.7799 2.7799 0 0141.51465 51.085zm0-3.55371a.77686.77686 0 10.77637.77734A.77812.77812 0 0041.51465 47.53125zM37.73145 45.74023A4.4917 4.4917 0 1142.22363 41.249 4.497 4.497 0 0137.73145 45.74023zm0-6.98339A2.4917 2.4917 0 1040.22363 41.249 2.49523 2.49523 0 0037.73145 38.75684z"/><path d="M45.3584,49.30859H43.291a1,1,0,0,1,0-2H45.3584a1,1,0,0,1,0,2Z"/><path d="M49.20312 51.085a2.77686 2.77686 0 112.77735-2.77637A2.77906 2.77906 0 0149.20312 51.085zm0-3.55371a.77686.77686 0 10.77735.77734A.77791.77791 0 0049.20312 47.53125zM52.98633 45.74023A4.4917 4.4917 0 1157.47754 41.249 4.497 4.497 0 0152.98633 45.74023zm0-6.98339A2.4917 2.4917 0 1055.47754 41.249 2.49523 2.49523 0 0052.98633 38.75684z"/><path d="M47.42676 49.30859H45.3584a1 1 0 010-2h2.06836a1 1 0 010 2zM45.876 42.81445H44.8418a1 1 0 010-2H45.876a1 1 0 010 2zM19.583 32.98145H16.34668a3.0708 3.0708 0 01-3.06738-3.06739V27.84619a3.07079 3.07079 0 013.06738-3.06738H19.583a1 1 0 010 2H16.34668a1.0685 1.0685 0 00-1.06738 1.06738v2.06787a1.06851 1.06851 0 001.06738 1.06739H19.583a1 1 0 010 2z"/><path d="M15.3125 27.05371a1 1 0 01-.99609-.92334l-1.03321-13.456a1 1 0 011.99414-.15332l1.03321 13.456a1.00029 1.00029 0 01-.9209 1.07373C15.36426 27.05273 15.33789 27.05371 15.3125 27.05371zM19.583 48.48828H17.38086a3.642 3.642 0 01-3.53906-2.76269l-.53223-2.12989a.99951.99951 0 011.93945-.48437l.53223 2.1289a1.64752 1.64752 0 001.59961 1.24805H19.583a1 1 0 010 2z"/><path d="M17.38086,48.48828H11.17773a1,1,0,1,1,0-2h6.20313a1,1,0,0,1,0,2Z"/><path d="M11.17773 49.52246a.99942.99942 0 01-1-1V46.45508a1 1 0 012 0v2.06738A.99942.99942 0 0111.17773 49.52246zM17.38086 54.69141a.99942.99942 0 01-1-1V47.48828a1 1 0 012 0v6.20313A.99943.99943 0 0117.38086 54.69141z"/><path d="M19.583 58.82617H17.38086a2.03574 2.03574 0 01-2.03418-2.0332V54.72461a2.03574 2.03574 0 012.03418-2.0332H19.583a1 1 0 010 2H17.38086L17.34668 56.793l2.23633.0332a1 1 0 010 2zM13.24707 13.99854a.99986.99986 0 01-.82324-1.56885c1.42285-2.05274 1.4082-4.294-.04785-6.85254a1.00042 1.00042 0 011.0498-1.47852 37.30728 37.30728 0 006.02246.45752 1 1 0 010 2 43.00529 43.00529 0 01-4.5166-.23633A7.64218 7.64218 0 0115.1875 11.29a17.51946 17.51946 0 014.26074-.53125 1 1 0 010 2 14.81556 14.81556 0 00-5.77148 1.14258A.99214.99214 0 0113.24707 13.99854zM6.90527 35.04883a.99943.99943 0 01-1-1V28.88037a1 1 0 012 0v5.16846A.99942.99942 0 016.90527 35.04883z"/><path d="M7.043,29.88037H2.90723A2.31931,2.31931,0,0,1,.65332,28.12012l-.53223-2.1294a1.80534,1.80534,0,0,1,1.31348-2.19189,1.8628,1.8628,0,0,1,.43848-.05371H8.07617a1.80911,1.80911,0,0,1,1.80762,1.80713,1.75518,1.75518,0,0,1-.05664.44726l-.5293,2.12061A2.32125,2.32125,0,0,1,7.043,29.88037ZM2.12109,25.74512l.47168,1.88965a.32426.32426,0,0,0,.31446.2456H7.043a.32424.32424,0,0,0,.31445-.2456l.47168-1.88965Zm5.95508,0h0Z"/><path d="M6.90527 41.252H3.94141a1.001 1.001 0 01-.707-.293L2.2002 39.92578a.99927.99927 0 01-.293-.707V28.88037a1 1 0 012 0v9.92432l.44824.44726h2.5498a1 1 0 110 2zM7.03613 25.74512a.99974.99974 0 01-1-1V18.49854A4.51458 4.51458 0 005.13867 16.54a10.51037 10.51037 0 01-.81836-1.44385L3.4375 13.04688A3.8404 3.8404 0 014.43555 8.8623a3.95827 3.95827 0 011.01562-.60009A3.71966 3.71966 0 007.3418 6.71436 21.32 21.32 0 008.48926 4.39258c.124-.27783.24512-.55029.36719-.81446C10.55469-.03418 12.877-.0166 17.98438.00635L19.583.01221a1 1 0 010 2l-1.60938-.00586c-5.08691-.02442-6.1914.04931-7.30468 2.418-.11622.24951-.23243.5122-.35157.78027A22.97933 22.97933 0 019.06641 7.728a5.61424 5.61424 0 01-2.76953 2.34668 3.50178 3.50178 0 00-.52247.27343 1.84224 1.84224 0 00-.5 1.90772l.88184 2.04883a9.00322 9.00322 0 00.66895 1.15918 5.86729 5.86729 0 011.21093 3.03467v6.24658A.99974.99974 0 017.03613 25.74512z"/><path d="M19.583 44.35352H9.28809a3.39968 3.39968 0 01-3.37891-2.96l-.00391-7.34472a.99942.99942 0 011-1H9.14453a2.6593 2.6593 0 012.38965 1.47656l.11133.22266a.66759.66759 0 00.59961.36914H19.583a1 1 0 010 2H12.24512a2.65929 2.65929 0 01-2.38965-1.47657L9.74414 35.418a.66759.66759 0 00-.59961-.36914H7.90527v6.2539a1.40706 1.40706 0 001.38282 1.05079H19.583a1 1 0 010 2zM3.94141 59.86035a.99977.99977 0 01-1-1V55.75879a1.00054 1.00054 0 01.84765-.98828l13.43946-2.06739a1 1 0 01.30468 1.97657L4.94141 56.61719v1.15625l11.32226-.94434 1.11719-.00293a1 1 0 110 2H16.34668L4.02441 59.85742C3.99707 59.85938 3.96875 59.86035 3.94141 59.86035z"/><path d="M4.97461,63.99512A3.06739,3.06739,0,1,1,8.042,60.92773,3.0708,3.0708,0,0,1,4.97461,63.99512Zm0-4.13477A1.06739,1.06739,0,1,0,6.042,60.92773,1.06819,1.06819,0,0,0,4.97461,59.86035Z"/><path d="M4.97461,59.81738a.96368.96368,0,0,1-1-.957v-.08594a1,1,0,0,1,2,0A1.037,1.037,0,0,1,4.97461,59.81738Z"/><g><path d="M22.81934,32.98145H19.583a1,1,0,1,1,0-2h3.23633a1.06935,1.06935,0,0,0,1.06836-1.06739V27.84619a1.06934,1.06934,0,0,0-1.06836-1.06738H19.583a1,1,0,0,1,0-2h3.23633a3.071,3.071,0,0,1,3.06836,3.06738v2.06787A3.071,3.071,0,0,1,22.81934,32.98145Z" data-name="rect4075"/><path d="M23.85449,27.05371c-.02539,0-.05176-.001-.07715-.00293a1.00027,1.00027,0,0,1-.92089-1.07373l1.0332-13.456a1,1,0,0,1,1.99414.15332l-1.0332,13.45605A1,1,0,0,1,23.85449,27.05371Z" data-name="path10254"/><path d="M21.78613,48.48828H19.583a1,1,0,0,1,0-2h2.20312a1.64731,1.64731,0,0,0,1.59961-1.249l.53223-2.12793a.99951.99951,0,1,1,1.93945.48437l-.53222,2.12891A3.64185,3.64185,0,0,1,21.78613,48.48828Z" data-name="path10544"/><path d="M21.78613,54.69141a.99943.99943,0,0,1-1-1V47.48828a1,1,0,0,1,2,0v6.20313A.99942.99942,0,0,1,21.78613,54.69141Z" data-name="path11513"/><path d="M21.78613,58.82617H19.583a1,1,0,1,1,0-2h2.20312l.03321-2.10156-2.23633-.0332a1,1,0,1,1,0-2h2.20312a2.03553,2.03553,0,0,1,2.03321,2.0332V56.793A2.03553,2.03553,0,0,1,21.78613,58.82617Z" data-name="rect11617"/><path d="M25.9209,13.99951a.99418.99418,0,0,1-.4336-.09912,14.811,14.811,0,0,0-5.76855-1.1416,1,1,0,0,1,0-2,17.5194,17.5194,0,0,1,4.26074.53125,7.63581,7.63581,0,0,1,.25586-4.97022,43.00529,43.00529,0,0,1-4.5166.23633,1,1,0,0,1,0-2,37.28635,37.28635,0,0,0,6.02148-.45752A1.00022,1.00022,0,0,1,26.79,5.57666c-1.45508,2.55859-1.4707,4.80029-.04688,6.853a1.00012,1.00012,0,0,1-.82226,1.56982Z" data-name="path22593"/><path d="M32.26172,34.70508a.99942.99942,0,0,1-1-1V27.88037a1,1,0,0,1,2,0v5.82471A.99943.99943,0,0,1,32.26172,34.70508Z" data-name="path2004"/><path d="M36.25977,28.88037H32.124a2.3193,2.3193,0,0,1-2.2539-1.76025l-.53223-2.1294a1.72331,1.72331,0,0,1-.05469-.43847,1.80911,1.80911,0,0,1,1.80762-1.80713H37.293a1.82541,1.82541,0,0,1,.43164.05224,1.80478,1.80478,0,0,1,1.32129,2.19385l-.53223,2.12891A2.31931,2.31931,0,0,1,36.25977,28.88037ZM31.332,24.74512l.47754,1.88965a.32425.32425,0,0,0,.31445.2456h4.13575a.32425.32425,0,0,0,.31445-.2456l.47168-1.88965Zm5.96094,0h0Z" data-name="rect3558"/><path d="M36.25977,31.38525a.99973.99973,0,0,1-1-1V27.88037a1,1,0,0,1,2,0v2.50488A.99974.99974,0,0,1,36.25977,31.38525Z" data-name="path7351"/><path d="M32.12988,24.74512a.99974.99974,0,0,1-1-1V18.49854a5.86085,5.86085,0,0,1,1.21094-3.03272,8.9168,8.9168,0,0,0,.668-1.16113l.88476-2.04932a1.84366,1.84366,0,0,0-.502-1.90771,3.48355,3.48355,0,0,0-.52148-.27295,5.61871,5.61871,0,0,1-2.77735-2.35987,22.95761,22.95761,0,0,1-1.24316-2.51025c-.11914-.26807-.23535-.53076-.35352-.78467-1.11132-2.36474-2.23535-2.438-7.30273-2.41357L19.583,2.01221a1,1,0,0,1,0-2L21.18164.00635c5.10742-.01953,7.43066-.04,9.12695,3.56738.124.26856.24512.541.36914.81885a21.35511,21.35511,0,0,0,1.13965,2.30908,3.73137,3.73137,0,0,0,1.89844,1.56055,3.94826,3.94826,0,0,1,1.01465.59961,3.84214,3.84214,0,0,1,1,4.18506l-.88477,2.04931a10.36387,10.36387,0,0,1-.81933,1.4458,4.51687,4.51687,0,0,0-.89649,1.95655v5.24658A.99974.99974,0,0,1,32.12988,24.74512Z" data-name="path22591"/><path d="M25.9209 37.11719H19.583a1 1 0 010-2H25.9209a.66794.66794 0 00.60156-.37207l.10938-.21875a2.65946 2.65946 0 012.39062-1.47754h2.93848a1 1 0 010 2H29.02246a.67832.67832 0 00-.60156.37207l-.10938.21875A2.65948 2.65948 0 0125.9209 37.11719zM27.90527 44.35352H19.583a1 1 0 010-2h8.32226a1 1 0 010 2z" data-name="path22599"/><path d="M33.90234 59.75c-.02734 0-.05566-.001-.084-.00293l-11.082-.92383-.9502.00293a1 1 0 010-2h1.03321l11.165.92676a1.00025 1.00025 0 01-.082 1.99707zM30.65723 56.05566a1.02316 1.02316 0 01-.15332-.01171l-8.87012-1.36426a1 1 0 11.30469-1.97657l8.87011 1.36426a1 1 0 01-.15136 1.98828z" data-name="path24925"/></g><path d="M19.583 59.86035a.99942.99942 0 01-1-1V57.82617a1 1 0 112 0v1.03418A.99942.99942 0 0119.583 59.86035zM19.71875 12.75879h-.27051a1 1 0 010-2h.27051a1 1 0 010 2zM19.71875 6.55615h-.27051a1 1 0 010-2h.27051a1 1 0 010 2z"/></svg>