<svg xmlns="http://www.w3.org/2000/svg" viewBox="0 0 64 64"><g data-name="Outline"><path d="M3 62h50a1 1 0 0 0 1-1 16.622 16.622 0 0 0-.253-2.825 7.3 7.3 0 0 0 8-5.255c1.163-4.283-2.061-9.268-6.573-9.17H46V16.18C46 8.494 37.757 2 28 2S10 8.494 10 16.18v30.533A16.754 16.754 0 0 0 2 61a1 1 0 0 0 1 1Zm24-2H13v-1a3 3 0 0 1 3-3h11Zm0-12.035a28.052 28.052 0 0 1-10.78-2.673l1.137-1.033a3 3 0 0 1 2.018-.779h.95A20.609 20.609 0 0 0 27 44.962Zm-4.769-5.925a10.664 10.664 0 0 0 .876-1.235A13.737 13.737 0 0 0 28 41.7c.354 0 .714-.015 1.077-.044a2.974 2.974 0 0 0 .614 1.236 17.838 17.838 0 0 1-7.46-.852ZM15 16.161a6.963 6.963 0 0 1 2.264-4.928A15.219 15.219 0 0 1 27.981 7.14C35.038 7.27 41 11.409 41 16.18V25h-6.927a1 1 0 0 1-.833-.447l-4.633-6.98a1 1 0 0 0-1.348-.3L15 24.639c0-.26.04-6.377 0-8.478ZM34.252 52.92a7.054 7.054 0 0 0 .391 1.08H29v-4.036a28.563 28.563 0 0 0 5.2-.661 7.594 7.594 0 0 0 .052 3.617ZM29 47.974v-3.007A20.539 20.539 0 0 0 34.163 44H35a2.983 2.983 0 0 0 1.679-.515 2.984 2.984 0 0 1 1.854.692 8.616 8.616 0 0 0-2.983 2.241 5.959 5.959 0 0 0-.4.589 26.7 26.7 0 0 1-6.15.967ZM31 41a1 1 0 0 1 1-1h3a1 1 0 0 1 0 2h-3a1 1 0 0 1-1-1Zm6.816-1a3.01 3.01 0 0 0-1.146-1.49 10.322 10.322 0 0 0 2.246-2.834A1.985 1.985 0 0 0 40 36h1v3a1 1 0 0 1-1 1ZM40 42a3 3 0 0 0 3-3v-3h1v7.75h-2.943l-1.07-.971A4.948 4.948 0 0 0 38.8 42Zm0-8v-7h1a2 2 0 0 0 2-2h1v9Zm-22-8.837 9.47-5.687 4.1 6.183A2.994 2.994 0 0 0 34.073 27H38v4.5a7.837 7.837 0 0 1-3.96 6.5H32a2.991 2.991 0 0 0-2.643 1.611A11.93 11.93 0 0 1 28 39.7c-5.514 0-10-3.679-10-8.2ZM43 60H29v-4h7a7.193 7.193 0 0 0 3.839 2.112 7.443 7.443 0 0 0 3-.031A2.926 2.926 0 0 1 43 59Zm2 0v-1a4.906 4.906 0 0 0-.288-1.62 7.432 7.432 0 0 0 .87-.54 4.011 4.011 0 0 1 4.836 0 7.418 7.418 0 0 0 1.144.678 14.91 14.91 0 0 1 .4 2.482Zm10.173-14.25c6.016.275 6.539 9.221.607 10.4a5.3 5.3 0 0 1-4.177-.919 5.95 5.95 0 0 0-7.206 0 5.284 5.284 0 0 1-8.211-2.819c-.92-3.04 1.408-6.712 4.641-6.66ZM12 16.18C12 9.692 19.477 4 28 4s16 5.692 16 12.18V23h-1v-6.82c0-5.936-6.721-10.888-14.981-11.04a17.5 17.5 0 0 0-12.17 4.679A8.789 8.789 0 0 0 13 16.2c.027 1.413.017 4.774.008 6.8H12ZM12 25h1.048A1.992 1.992 0 0 0 16 26.36V34h-4Zm0 11h4a1.98 1.98 0 0 0 1.068-.315 10.887 10.887 0 0 0 4.22 4.266 11.061 11.061 0 0 1-1.213 1.529h-.7a4.986 4.986 0 0 0-3.362 1.3l-2.007 1.82c-.748.359-1.4.688-2.006 1ZM5.743 54.029a14.643 14.643 0 0 1 4.812-5.307 36.174 36.174 0 0 1 3.859-2.093A30.2 30.2 0 0 0 27 49.968V54H16a5.006 5.006 0 0 0-5 5v1H4.034a14.884 14.884 0 0 1 1.709-5.971Z"/><circle cx="53" cy="51" r="1"/><circle cx="57" cy="51" r="1"/><circle cx="55" cy="49" r="1"/><circle cx="55" cy="53" r="1"/><path d="M40 49v1h-1a1 1 0 0 0 0 2h1v1a1 1 0 0 0 2 0v-1h1a1 1 0 0 0 0-2h-1v-1a1 1 0 0 0-2 0zm-6.931-17.655a3.953 3.953 0 0 0 2.748-1.37 1 1 0 0 0-.162-1.393 1 1 0 0 0-1.4.148 1.536 1.536 0 0 1-2.489-.081 1 1 0 0 0-1.414 1.414 3.925 3.925 0 0 0 2.717 1.282zm-7.339-1.37a1 1 0 0 0-.162-1.393 1 1 0 0 0-1.4.148 1.536 1.536 0 0 1-2.489-.081 1 1 0 0 0-1.414 1.414 3.925 3.925 0 0 0 2.72 1.282 3.953 3.953 0 0 0 2.745-1.37zm-.442 5.425a3.843 3.843 0 0 0 5.415.01 1.032 1.032 0 0 0 .008-1.414.984.984 0 0 0-1.414-.009 1.854 1.854 0 0 1-2.585.009.974.974 0 0 0-1.414-.01 1.014 1.014 0 0 0-.01 1.414z"/></g></svg>