<svg xmlns="http://www.w3.org/2000/svg" viewBox="0 0 32 32"><rect width="4" height="4" x="2" y="17" fill="#ffd766" rx="1" ry="1"/><rect width="4" height="4" x="14" y="1" fill="#ff6a66" rx="1" ry="1"/><rect width="4" height="4" x="26" y="17" fill="#ffd766" rx="1" ry="1"/><circle cx="4" cy="3" r="2" fill="#f7931e"/><circle cx="28" cy="3" r="2" fill="#f7931e"/><rect width="10" height="4" x="11" y="26" fill="#45ace5" rx="2" ry="2"/><path fill="#f2efed" d="M14 20h4v6h-4z"/><path fill="#ffd766" d="m16 12.94-3.71 4.24L14 20h4l1.71-2.82L16 12.94z"/><path fill="#1a2833" d="M29 17v-1a12.93 12.93 0 0 0-6.07-11h2.25a3 3 0 1 0 0-2H19a2 2 0 0 0-2-2h-2a2 2 0 0 0-2 2H6.82a3 3 0 1 0 0 2h2.25A12.93 12.93 0 0 0 3 16v1a2 2 0 0 0-2 2v2a2 2 0 0 0 2 2h2a2 2 0 0 0 2-2v-2a2 2 0 0 0-2-2v-1a10.94 10.94 0 0 1 8-10.59A2 2 0 0 0 15 7h2a2 2 0 0 0 2-1.59A10.94 10.94 0 0 1 27 16v1a2 2 0 0 0-2 2v2a2 2 0 0 0 2 2h2a2 2 0 0 0 2-2v-2a2 2 0 0 0-2-2ZM5 21H3v-2h2ZM28 3a1 1 0 1 1-1 1 1 1 0 0 1 1-1ZM4 5a1 1 0 1 1 1-1 1 1 0 0 1-1 1Zm13 0h-2V3h2Zm12 16h-2v-2h2Z"/><path fill="#1a2833" d="M19 25v-4.72l1.57-2.59a1 1 0 0 0-.11-1.17l-3.71-4.24a1 1 0 0 0-1.46 0l-3.71 4.24a1 1 0 0 0-.11 1.17L13 20.28V25a3 3 0 0 0 0 6h6a3 3 0 0 0 0-6Zm-4-9.4v1.34a1 1 0 0 0 2 0V15.6l1.48 1.68-1 1.72h-2.92l-1-1.72Zm0 5.4h2v4h-2Zm4 8h-6a1 1 0 0 1 0-2h6a1 1 0 0 1 0 2Z"/></svg>