<svg xmlns="http://www.w3.org/2000/svg" data-name="Artboard 30" viewBox="0 0 64 64"><path fill="#deeaf0" d="M32,46H25.893a2.83,2.83,0,0,0-2.615,1.75l-3.994,9.686A6.57,6.57,0,0,1,13.006,62h0a6.562,6.562,0,0,1-6.422-5.094L2.375,38.174a14.826,14.826,0,0,1,6.8-16.126A15.231,15.231,0,0,1,16.831,20,15.417,15.417,0,0,1,26,23H38a15.417,15.417,0,0,1,9.169-3,15.231,15.231,0,0,1,7.657,2.048,14.826,14.826,0,0,1,6.8,16.126L57.416,56.906A6.562,6.562,0,0,1,50.994,62h0a6.57,6.57,0,0,1-6.278-4.564L40.722,47.75A2.83,2.83,0,0,0,38.107,46H32"/><path fill="#fff" d="M54.826,22.048A15.231,15.231,0,0,0,47.169,20,15.417,15.417,0,0,0,38,23H26a15.452,15.452,0,0,0-15-1.848v10.7A10.152,10.152,0,0,0,21.152,42h20.23a8.021,8.021,0,0,1,7.538,5.28l5.085,13.983a6.5,6.5,0,0,0,3.411-4.357l4.209-18.732A14.826,14.826,0,0,0,54.826,22.048Z" opacity=".4"/><polygon fill="#595a5d" points="13 36 9 36 9 32 13 32 13 28 17 28 17 32 21 32 21 36 17 36 17 40 13 40 13 36"/><circle cx="49" cy="33" r="8" fill="#595a5d"/><circle cx="49" cy="33" r="4" fill="#aaadb9"/><circle cx="37" cy="39" r="2" fill="#c64635"/><circle cx="27" cy="39" r="2" fill="#ffd55d"/><rect width="10" height="4" x="27" y="29" fill="#5490f5" rx="1"/><path fill="#aaadb9" d="M30,19V4a2,2,0,0,1,2-2h0a2,2,0,0,1,2,2V19Z"/><path fill="#c2d3dc" d="M26,23V21a2,2,0,0,1,2-2h8a2,2,0,0,1,2,2v2Z"/></svg>